{"title":"The.Dirty.Dancer.2014.Hindi.DvDRip.XviD.1CD.Team.IcTv-N3kr4","uid":10940081,"size":728287232,"categoryP":"video","categoryS":"movies","magnet":"?xt=urn:btih:3d549172301c9c7f53954aa8dac6767e2ed7fc8b&amp;dn=The.Dirty.Dancer.2014.Hindi.DvDRip.XviD.1CD.Team.IcTv-N3kr4&amp;tr=udp%3A%2F%2Ftracker.openbittorrent.com%3A80&amp;tr=udp%3A%2F%2Fopen.demonii.com%3A1337&amp;tr=udp%3A%2F%2Ftracker.coppersurfer.tk%3A6969&amp;tr=udp%3A%2F%2Fexodus.desync.com%3A6969","seeders":0,"leechers":1,"uploader":"Falcon.G13","files":1,"time":1409445289,"description":" &lt;a href=&quot;http://i.imgur.com/7fRMyka.jpg&quot; rel=&quot;nofollow&quot; target=&quot;_NEW&quot;&gt;http://i.imgur.com/7fRMyka.jpg&lt;/a&gt; &lt;a href=&quot;\nhttp://i.imgur.com/6qmiESg.jpg&quot; rel=&quot;nofollow&quot; target=&quot;_NEW&quot;&gt;\nhttp://i.imgur.com/6qmiESg.jpg&lt;/a&gt; &lt;a href=&quot;\nhttp://i.imgur.com/TGRnzLR.jpg&quot; rel=&quot;nofollow&quot; target=&quot;_NEW&quot;&gt;\nhttp://i.imgur.com/TGRnzLR.jpg&lt;/a&gt; &lt;a href=&quot;\nhttp://i.imgur.com/nNQfmLN.jpg&quot; rel=&quot;nofollow&quot; target=&quot;_NEW&quot;&gt;\nhttp://i.imgur.com/nNQfmLN.jpg&lt;/a&gt; &lt;a href=&quot;\nhttp://i.imgur.com/82S7IZA.jpg&quot; rel=&quot;nofollow&quot; target=&quot;_NEW&quot;&gt;\nhttp://i.imgur.com/82S7IZA.jpg&lt;/a&gt; &lt;a href=&quot;\nhttp://i.imgur.com/XkYMfTc.jpg&quot; rel=&quot;nofollow&quot; target=&quot;_NEW&quot;&gt;\nhttp://i.imgur.com/XkYMfTc.jpg&lt;/a&gt; &lt;a href=&quot;\nhttp://i.imgur.com/LPrqr98.jpg&quot; rel=&quot;nofollow&quot; target=&quot;_NEW&quot;&gt;\nhttp://i.imgur.com/LPrqr98.jpg&lt;/a&gt; &lt;a href=&quot;\nhttp://i.imgur.com/iz013vc.jpg&quot; rel=&quot;nofollow&quot; target=&quot;_NEW&quot;&gt;\nhttp://i.imgur.com/iz013vc.jpg&lt;/a&gt; &lt;a href=&quot;\nhttp://i.imgur.com/gWqXeGJ.jpg&quot; rel=&quot;nofollow&quot; target=&quot;_NEW&quot;&gt;\nhttp://i.imgur.com/gWqXeGJ.jpg&lt;/a&gt; &lt;a href=&quot;\nhttp://i.imgur.com/5ij2zbD.jpg&quot; rel=&quot;nofollow&quot; target=&quot;_NEW&quot;&gt;\nhttp://i.imgur.com/5ij2zbD.jpg&lt;/a&gt;\n\nGeneral\nComplete name : The.Dirty.Dancer.2014.Hindi.DvDRip.XviD.1CD.Team.IcTv-N3kr4.avi\nFormat : AVI\nFormat/Info : Audio Video Interleave\nFile size : 695 MiB\nDuration : 1h 36mn\nOverall bit rate : 1 002 Kbps\n\nVideo\nID : 0\nFormat : MPEG-4 Visual\nFormat profile : Advanced Simple@L5\nFormat settings, BVOP : Yes\nFormat settings, QPel : No\nFormat settings, GMC : No warppoints\nFormat settings, Matrix : Default (H.263)\nCodec ID : XVID\nCodec ID/Hint : XviD\nDuration : 1h 36mn\nBit rate : 868 Kbps\nWidth : 640 pixels\nHeight : 272 pixels\nDisplay aspect ratio : 2.35:1\nFrame rate : 25.000 fps\nColor space : YUV\nChroma subsampling : 4:2:0\nBit depth : 8 bits\nScan type : Progressive\nCompression mode : Lossy\nBits/(Pixel*Frame) : 0.199\nStream size : 602 MiB (87%)\nWriting library : XviD 1.2.1 (UTC 2008-12-04)\n\nAudio\nID : 1\nFormat : MPEG Audio\nFormat version : Version 1\nFormat profile : Layer 3\nMode : Joint stereo\nMode extension : MS Stereo\nCodec ID : 55\nCodec ID/Hint : MP3\nDuration : 1h 36mn\nBit rate mode : Constant\nBit rate : 128 Kbps\nChannel(s) : 2 channels\nSampling rate : 44.1 KHz\nCompression mode : Lossy\nStream size : 88.7 MiB (13%)\nAlignment : Aligned on interleaves\nInterleave, duration : 160 ms (4.00 video frames)\nInterleave, preload duration : 208 ms\nTitle : The Dirty Dancer (2013) - Hindi Movie Watch Online.mp4_track_1_\nWriting library : LAME3.99r\nEncoding settings : -m j -V 4 -q 2 -lowpass 17 -b 128","torrent":{"xt":"urn:btih:3d549172301c9c7f53954aa8dac6767e2ed7fc8b","amp;dn":"The.Dirty.Dancer.2014.Hindi.DvDRip.XviD.1CD.Team.IcTv-N3kr4","amp;tr":["udp%3A%2F%2Ftracker.openbittorrent.com%3A80","udp%3A%2F%2Fopen.demonii.com%3A1337","udp%3A%2F%2Ftracker.coppersurfer.tk%3A6969","udp%3A%2F%2Fexodus.desync.com%3A6969"],"infoHash":"3d549172301c9c7f53954aa8dac6767e2ed7fc8b","infoHashBuffer":{"type":"Buffer","data":[61,84,145,114,48,28,156,127,83,149,74,168,218,198,118,126,46,215,252,139]},"announce":[],"urlList":[]}}